<svg width="20" height="20" viewBox="0 0 20 20" fill="none" xmlns="http://www.w3.org/2000/svg">
    <g clip-path="url(#clip0_596_4337)">
        <path
            d="M3.33333 10.8335C3.79167 10.8335 4.16667 10.4585 4.16667 10.0002C4.16667 9.54183 3.79167 9.16683 3.33333 9.16683C2.875 9.16683 2.5 9.54183 2.5 10.0002C2.5 10.4585 2.875 10.8335 3.33333 10.8335ZM3.33333 14.1668C3.79167 14.1668 4.16667 13.7918 4.16667 13.3335C4.16667 12.8752 3.79167 12.5002 3.33333 12.5002C2.875 12.5002 2.5 12.8752 2.5 13.3335C2.5 13.7918 2.875 14.1668 3.33333 14.1668ZM3.33333 7.50016C3.79167 7.50016 4.16667 7.12516 4.16667 6.66683C4.16667 6.2085 3.79167 5.8335 3.33333 5.8335C2.875 5.8335 2.5 6.2085 2.5 6.66683C2.5 7.12516 2.875 7.50016 3.33333 7.50016ZM6.66667 10.8335H16.6667C17.125 10.8335 17.5 10.4585 17.5 10.0002C17.5 9.54183 17.125 9.16683 16.6667 9.16683H6.66667C6.20833 9.16683 5.83333 9.54183 5.83333 10.0002C5.83333 10.4585 6.20833 10.8335 6.66667 10.8335ZM6.66667 14.1668H16.6667C17.125 14.1668 17.5 13.7918 17.5 13.3335C17.5 12.8752 17.125 12.5002 16.6667 12.5002H6.66667C6.20833 12.5002 5.83333 12.8752 5.83333 13.3335C5.83333 13.7918 6.20833 14.1668 6.66667 14.1668ZM5.83333 6.66683C5.83333 7.12516 6.20833 7.50016 6.66667 7.50016H16.6667C17.125 7.50016 17.5 7.12516 17.5 6.66683C17.5 6.2085 17.125 5.8335 16.6667 5.8335H6.66667C6.20833 5.8335 5.83333 6.2085 5.83333 6.66683ZM3.33333 10.8335C3.79167 10.8335 4.16667 10.4585 4.16667 10.0002C4.16667 9.54183 3.79167 9.16683 3.33333 9.16683C2.875 9.16683 2.5 9.54183 2.5 10.0002C2.5 10.4585 2.875 10.8335 3.33333 10.8335ZM3.33333 14.1668C3.79167 14.1668 4.16667 13.7918 4.16667 13.3335C4.16667 12.8752 3.79167 12.5002 3.33333 12.5002C2.875 12.5002 2.5 12.8752 2.5 13.3335C2.5 13.7918 2.875 14.1668 3.33333 14.1668ZM3.33333 7.50016C3.79167 7.50016 4.16667 7.12516 4.16667 6.66683C4.16667 6.2085 3.79167 5.8335 3.33333 5.8335C2.875 5.8335 2.5 6.2085 2.5 6.66683C2.5 7.12516 2.875 7.50016 3.33333 7.50016ZM6.66667 10.8335H16.6667C17.125 10.8335 17.5 10.4585 17.5 10.0002C17.5 9.54183 17.125 9.16683 16.6667 9.16683H6.66667C6.20833 9.16683 5.83333 9.54183 5.83333 10.0002C5.83333 10.4585 6.20833 10.8335 6.66667 10.8335ZM6.66667 14.1668H16.6667C17.125 14.1668 17.5 13.7918 17.5 13.3335C17.5 12.8752 17.125 12.5002 16.6667 12.5002H6.66667C6.20833 12.5002 5.83333 12.8752 5.83333 13.3335C5.83333 13.7918 6.20833 14.1668 6.66667 14.1668ZM5.83333 6.66683C5.83333 7.12516 6.20833 7.50016 6.66667 7.50016H16.6667C17.125 7.50016 17.5 7.12516 17.5 6.66683C17.5 6.2085 17.125 5.8335 16.6667 5.8335H6.66667C6.20833 5.8335 5.83333 6.2085 5.83333 6.66683Z"
            fill="#0D59F2" />
    </g>
    <defs>
        <clipPath id="clip0_596_4337">
            <rect width="20" height="20" fill="white" />
        </clipPath>
    </defs>
</svg>